<svg width="618" height="716" viewBox="0 0 618 716" fill="none" xmlns="http://www.w3.org/2000/svg">
<path d="M508.467 569.556L374.922 646.811L186.978 538.2L320.522 460.944L508.467 569.556Z" fill="#F0EEFF"/>
<path d="M419.311 622.822L319.956 715.567L93.6667 634.722L193.022 541.978L419.311 622.822Z" fill="#F2F1FF"/>
<path d="M483.533 620.744L455.2 604.311L483.344 588.067L511.867 604.5L483.533 620.744Z" fill="#7E39FF"/>
<path d="M511.867 604.5L483.533 620.744V652.289L511.867 636.044V604.5Z" fill="#7E39FF"/>
<path d="M455.2 604.311L483.533 620.744V652.289L455.2 635.856V604.311Z" fill="#5F0AFF"/>
<path d="M557.389 439.978L497.133 405.222L557.011 370.844L617.267 405.6L557.389 439.978Z" fill="#EDECF8"/>
<path d="M617.267 405.6L557.389 439.978V506.844L617.267 472.278V405.6Z" fill="#BFBEED"/>
<path d="M497.133 405.222L557.389 439.978V506.844L497.133 472.089V405.222Z" fill="#E1DEF8"/>
<path d="M149.767 457.922L88.3777 422.411L149.389 387.278L210.778 422.6L149.767 457.922Z" fill="#EDECF8"/>
<path d="M210.778 422.6L149.767 457.922V526.111L210.778 490.789V422.6Z" fill="#BFBEED"/>
<path d="M88.3777 422.411L149.767 457.922V526.111L88.3777 490.6V422.411Z" fill="#E1DEF8"/>
<path d="M86.8666 324.756C84.2221 315.122 82.5221 308.889 79.4999 293.4C78.5555 289.245 78.3666 284.9 78.9333 280.556C79.4999 276.211 81.1999 272.811 83.6555 269.222C84.7888 267.522 86.2999 265.822 88.1888 265.633C90.0777 265.445 91.5888 266.767 92.911 268.089C100.467 275.645 103.678 287.167 104.433 297.556C105 307.378 106.7 311.345 107.078 321.167C107.267 323.056 107.455 324.945 107.078 326.833C105.755 335.711 104.055 334.578 98.5777 330.989C95.7444 329.289 88.1888 330.045 86.8666 324.756Z" fill="#EDECF8"/>
<path d="M131.444 368.956C127.855 369.333 124.267 366.689 121.244 364.233C114.444 358.756 89.1332 335.9 86.2998 323.056C85.5443 319.845 89.1332 318.522 91.7776 316.256C93.8554 314.556 105 317.956 107.078 320.411C110.289 324.378 126.911 343.645 135.789 356.489C136.922 358.189 138.055 360.078 138.055 361.967C138.433 365.178 134.278 368.578 131.444 368.956Z" fill="#EDECF8"/>
<path d="M27.5555 473.411C27.5555 474.167 28.3111 475.489 28.5 476.245C29.0667 477.567 29.6333 479.078 30.0111 480.4C31.7111 486.256 32.6556 491.922 32.8444 497.967C33.0333 501.367 34.1667 505.145 31.9 508.167C29.6333 511 24.7222 512.7 21.1333 511.756C17.3555 510.811 16.0333 506.467 15.2778 503.256C14.1444 498.533 13.3889 493.622 12.8222 488.9C12.4444 485.878 12.0667 482.856 12.8222 479.833C13.2 478.133 13.9556 476.622 14.9 475.3C15.4667 474.545 16.0333 473.978 16.7889 473.411C17.5444 472.845 18.1111 472.656 18.6778 472.089C19.6222 470.767 20.5667 469.067 21.8889 467.933C23.0222 466.989 25.1 467.367 26.2333 468.122C27.5556 469.067 28.3111 470.389 28.6889 472.089C28.5 472.467 27.7444 472.656 27.5555 473.411C27.5555 473.222 27.5555 473.222 27.5555 473.411Z" fill="#252956"/>
<path d="M56.6444 466.045C58.1555 466.8 59.4778 467.933 60.8 468.878C62.1222 469.822 63.6333 470.389 64.9556 471.333C67.9778 473.222 71.1889 475.111 74.4 476.811C76.8555 478.133 79.3111 479.267 81.5778 480.778C83.2778 481.911 84.9778 483.422 86.3 485.122C87.0555 486.067 87.2444 486.633 87.0555 487.767C86.8667 488.9 86.3 489.844 85.9222 490.789C84.9778 492.678 83.8444 494.378 82.1444 495.322C80.4444 496.267 78.3667 496.267 76.4778 495.7C73.6444 494.944 70.4333 493.245 68.3555 491.167C66.0889 488.9 63.6333 487.2 60.6111 486.445C58.1555 485.878 55.5111 485.689 53.2444 484.367C51.3555 483.233 49.8444 481.345 49.4667 479.078C48.9 476.622 49.6555 473.789 49.2778 471.333C49.0889 469.633 52.4889 468.122 52.6778 466.422C52.8667 464.911 50.4111 463.589 51.9222 463.4C53.4333 463.022 55.1333 463.589 56.4556 464.344L56.6444 466.045Z" fill="#252956"/>
<path d="M53.8111 406.167L78.5556 412.778C79.3111 416.745 78.5556 420.522 77.9889 423.545C76.4778 433.933 70.8111 469.633 68.5445 474.733C67.4111 477.378 65.9 478.322 63.0667 478.889C60.2334 479.267 57.4 479.078 54.7556 478.133C52.3 477.378 49.4667 476.056 48.1445 473.6C46.2556 470.011 53.8111 407.111 53.8111 406.167Z" fill="#323974"/>
<path d="M69.8668 371.411C71.189 377.078 79.8779 410.7 78.5557 416.933C77.0446 424.867 57.7779 424.678 57.0223 419.389C54.7557 402.767 31.7112 370.656 28.8779 354.978C26.0445 338.922 50.4112 321.545 55.1334 319.089C58.1557 334.956 64.389 345.722 69.8668 371.411Z" fill="#323974"/>
<path d="M40.2111 427.889C38.8889 439.222 35.8667 475.111 33.4111 480.589C32.2778 483.422 30.7667 484.367 27.7445 484.933C24.9111 485.5 21.8889 485.122 19.0556 484.178C16.4111 483.233 13.2 481.911 12.0667 479.267C11.5 477.945 11.8778 445.456 12.4445 436.2C12.8222 430.722 15.8445 411.267 16.9778 409.567C19.2445 406.356 17.9222 392.567 17.9222 392.567C17.9222 392.567 34.5445 399.933 37.5667 402.956C45.3111 410.322 40.9667 422.033 40.2111 427.889Z" fill="#3C4384"/>
<path d="M56.0778 344.022C57.0222 344.778 58.1556 341 59.1 343.456C59.6667 344.778 58.3445 345.533 57.9667 346.478C57.2111 347.989 57.2111 349.878 56.6445 351.578C55.5111 355.167 52.3 357.622 49.6556 360.078C45.5 363.856 41.3445 368.2 38.3222 372.922C34.7334 378.778 36.8111 385.389 37.7556 391.622C38.8889 398.989 41.1556 405.033 41.9111 412.4C41.9111 413.156 21.1334 429.589 20 427.133C17.9222 422.6 15.8445 418.256 13.9556 413.533C10.1778 403.522 4.88892 383.122 2.81114 372.545C0.922249 363.478 -1.15553 351.578 2.43336 342.889C4.51114 337.789 8.66669 330.989 13.3889 327.778C15.8445 326.078 18.6778 324.378 21.3222 322.867C21.7 322.678 26.6111 320.411 26.6111 320.222C28.1222 336.278 43.8 334.578 56.0778 344.022Z" fill="#3C4384"/>
<path d="M23.9666 310.4C27.1777 304.545 29.0666 297.744 32.2777 291.7C35.2999 286.033 38.6999 279.8 43.0444 275.078C48.8999 268.656 56.6444 262.045 65.5221 259.967C72.511 258.267 79.6888 257.889 85.7333 262.044C88.7555 264.122 92.5333 267.145 94.0444 270.356C95.9333 273.945 95.9333 277.911 96.1222 281.5C96.4999 286.789 96.311 291.511 94.611 296.422C91.9666 304.167 86.6777 310.4 82.5221 317.2C78.3666 324 74.7777 330.8 71.7555 338.356C70.6222 341.189 69.111 344.211 68.3555 347.044C67.411 350.256 67.7888 354.411 66.0888 357.433C63.4444 361.589 57.3999 361.589 53.0555 361.4C47.011 361.211 40.9666 360.456 35.2999 358.189C30.011 356.111 25.4777 353.656 21.1333 349.878C3.75548 334.956 13.1999 328.533 15.2777 324.378C16.9777 320.033 23.5888 311.156 23.9666 310.4Z" fill="#E1DEF8"/>
<path d="M65.3333 341.567C66.4666 343.456 67.7888 345.533 68.9221 347.422C72.1333 344.589 72.3221 344.4 75.5333 341.567C81.9555 320.789 87.2444 301.144 88.3777 279.8C86.111 280.556 84.7888 280.933 82.5221 281.689C79.1221 301.333 74.5888 321.544 65.3333 341.567Z" fill="#3C4384"/>
<path d="M13.9555 326.078C10.9333 330.422 5.4555 336.845 20.7555 349.878C25.2888 353.656 29.6333 356.111 34.9222 358.189C40.5888 360.456 46.6333 361.211 52.6777 361.4C57.0222 361.589 63.0666 361.589 65.7111 357.433C66.4666 356.111 66.8444 354.6 67.0333 353.089C44.5555 361.4 20 347.422 13.9555 326.078Z" fill="#252956"/>
<path d="M17.7334 334.578C16.9778 333.256 16.2222 331.933 15.6556 330.611C12.4445 333.256 11.3111 335.333 10.3667 337.978C10.7445 339.489 11.6889 341 12.8222 342.7C13.3889 339.489 15.4667 336.278 17.7334 334.578Z" fill="#3C4384"/>
<path d="M38.1333 352.522C36.6222 353.845 36.0555 357.056 35.6777 359.511C36.6222 359.889 38.1333 360.078 39.0777 360.456C39.4555 358.567 40.5888 355.922 41.5333 353.845C40.4 353.278 39.0777 352.9 38.1333 352.522Z" fill="#3C4384"/>
<path d="M118.222 380.1L180.933 343.833L118.6 307.756L55.8889 344.022L118.222 380.1Z" fill="#7E39FF"/>
<path d="M55.8889 344.022L118.222 380.1V449.611L55.8889 413.722V344.022Z" fill="#7E39FF"/>
<path d="M180.933 343.833L118.222 380.1V449.611L180.933 413.533V343.833Z" fill="#5F0AFF"/>
<path d="M71.0001 394.644C71.7556 394.644 71.7556 394.267 71.5668 393.511C71.3779 392.944 71.3779 392.567 71.189 392C71.189 392 71.0001 390.678 71.189 390.867C71.3779 390.867 71.7556 391.244 71.9445 391.433C72.1334 391.811 72.3223 392 72.7001 392.378C72.889 392.567 73.0779 392.944 73.2667 393.322C73.4556 393.7 73.6445 393.889 73.8334 394.267C74.0223 394.456 74.2112 394.833 74.4001 395.022C74.7779 395.4 75.3445 395.778 75.9112 395.4C76.6667 395.022 76.1001 394.078 75.9112 393.322C75.7223 392.944 74.9668 392 75.3445 391.622C75.5334 391.244 76.8556 392.378 77.0445 392.567C77.989 393.322 78.7445 394.267 79.689 394.644C80.4445 394.833 81.5779 395.022 81.2001 393.889C81.0112 393.133 80.4445 392.756 79.8779 392.189C79.3112 391.433 78.7445 390.867 78.1779 390.111C77.989 389.922 77.0445 388.978 77.2334 388.789C77.2334 388.6 77.8001 388.789 77.8001 388.789C78.5556 388.978 79.3112 389.167 80.0668 389.544C80.6334 389.733 81.2001 390.111 81.7667 390.3C82.3334 390.489 83.8445 391.244 84.4112 390.3C84.789 389.356 83.2779 388.411 82.7112 388.033C81.389 387.278 80.2556 386.333 79.3112 385.389C77.989 384.067 76.8556 382.556 76.289 380.667C76.1001 379.911 76.289 378.778 76.6667 378.211C77.989 378.967 78.7445 380.1 79.689 381.422C80.4445 382.367 81.389 383.311 82.7112 383.5C83.2779 383.5 84.4112 383.689 84.789 382.933C85.1668 382.367 84.789 381.611 84.2223 381.044C83.6556 380.667 83.089 380.289 82.7112 379.911C82.3334 379.344 81.9556 378.967 81.5779 378.4C81.0112 377.456 80.6334 376.322 79.8779 375.378C79.3112 374.433 78.3668 373.678 77.4223 373.111C77.0445 372.922 76.6668 372.733 76.289 372.544C75.3445 372.167 74.589 371.6 73.8334 370.844C71.5667 369.144 70.2445 366.122 68.3556 364.233C66.6556 362.344 64.9556 364.233 63.4445 365.744C62.3112 367.067 61.9334 368.2 62.1223 369.9C62.3112 371.411 62.8779 372.733 63.2556 374.244C63.4445 375.189 63.6334 376.322 63.8223 377.456C63.8223 377.833 64.0112 378.211 64.0112 378.589C64.2001 379.911 64.389 381.044 64.5779 382.367C64.9556 383.878 65.3334 385.578 65.9001 387.089C66.4668 388.6 67.2223 389.733 67.9779 391.244C68.1668 391.622 68.3556 392 68.5445 392.378C68.7334 393.511 69.6779 394.644 71.0001 394.644Z" fill="#FFC7AD"/>
<path d="M39.8334 323.245C40.4001 311.722 41.5334 300.2 42.8556 288.867C43.4223 284.711 44.1779 279.989 45.8779 276.211C47.7667 272.245 50.0334 269.6 53.4334 266.956C54.9445 265.822 57.7779 265.067 59.8556 265.256C61.9334 265.445 64.2001 266.389 64.9556 268.089C69.6779 277.722 67.789 290.567 65.1445 300.578C63.8223 305.867 63.2556 311.345 62.5001 316.822C62.1223 319.467 60.989 328.911 61.1779 330.989C61.1779 332.5 73.8334 363.856 73.8334 367.633C73.6445 371.033 69.6779 374.056 66.6556 375C64.9556 375.567 63.0668 375.378 61.3668 374.811C59.6668 374.244 58.9112 372.733 58.1556 371.411C56.6445 368.956 41.5334 338.167 41.1556 336.656C40.7779 335.145 40.2112 333.633 40.0223 332.122C39.8334 330.989 39.6445 329.856 39.6445 328.533C39.6445 327.589 39.8334 324.189 39.8334 323.245Z" fill="#EDECF8"/>
<path d="M78.5555 267.9C79.4999 270.356 81.011 272.433 82.711 274.322C84.5999 276.4 87.9999 280.367 91.0221 278.667C91.9666 278.1 92.911 277.533 93.6666 276.778C97.8221 273 99.8999 266.2 97.6332 261.289C96.6888 259.022 94.9888 257.133 93.0999 255.433C91.5888 253.922 90.0777 251.278 87.6221 251.467C86.2999 251.656 85.5444 252.411 84.9777 253.356C84.5999 253.922 84.411 254.489 84.0333 254.867C83.0888 256.756 80.8221 257.889 79.1221 259.4C78.5555 259.967 77.7999 260.345 77.2333 261.1C76.0999 262.989 77.611 265.822 78.5555 267.9Z" fill="#FFC7AD"/>
<path d="M90.2667 252.222C91.4001 253.167 92.3445 254.489 93.289 255.433C94.989 257.133 96.8778 259.022 97.8223 261.289C99.9001 266.389 97.8223 273 93.8556 276.778C93.1001 277.533 92.1556 278.1 91.2112 278.667C90.6445 278.856 90.0778 279.045 89.5112 279.045C84.9778 270.167 82.7112 261.478 90.2667 252.222Z" fill="#F3A984"/>
<path d="M91.2112 280.933C91.2112 281.689 90.2667 282.256 89.889 282.633C88.9445 283.578 88.0001 284.522 87.0556 285.278C86.489 285.656 85.9223 286.222 85.1667 286.222C83.8445 286.222 82.7112 284.711 81.9556 283.767C81.5779 283.2 81.389 282.822 81.2001 282.256C80.6334 280.367 82.9001 279.045 84.6001 278.856C85.5445 278.667 86.3001 278.667 87.2445 278.289C88.3778 278.1 90.0779 277.911 90.6445 279.045C90.6445 279.611 91.2112 280.367 91.2112 280.933Z" fill="#272E67"/>
<path d="M88 278.1C87.8111 279.422 89.1333 280.556 89.7 281.878C90.0778 282.445 91.0222 283.767 91.7778 283.956C92.3444 284.145 93.1 283.578 93.6667 283.2C96.8778 280.367 99.7111 277.156 101.6 273.378C102.167 272.245 101.978 270.167 101.6 268.845C101.222 267.711 99.7111 266.767 98.5778 266.767C97.2555 266.767 95.9333 268.656 95.7444 269.978C95.1778 274.133 91.4 277.533 88 278.1Z" fill="#E1DEF8"/>
<path d="M88.1889 278.289C88.1889 278.289 84.9778 280.178 81.9556 280.933C81.2 281.122 79.6889 281.689 78.5556 280.745C75.7222 277.911 70.2444 267.9 71 259.022C71 259.022 73.0778 258.645 75.3445 258.833C77.2333 259.022 78.9333 259.211 79.3111 259.4C79.3111 259.778 78.3667 262.422 78.5556 264.878C79.3111 270.356 83.4667 275.078 88.1889 278.289Z" fill="#E1DEF8"/>
<path d="M86.111 263.744C86.2999 266.389 86.4888 267.711 87.6221 270.167C89.511 274.511 92.911 276.211 93.6666 276.778C93.6666 276.778 93.6666 276.778 93.8555 276.967C98.011 273.189 100.089 266.389 97.8221 261.478C96.8777 259.211 95.1777 257.322 93.2888 255.622C91.7777 254.111 90.2666 251.467 87.811 251.656C86.4888 251.844 87.9999 252.222 87.4332 253.167C88.5666 255.056 85.9221 261.289 86.111 263.744Z" fill="#F3A984"/>
<path d="M84.0334 235.222L120.678 233.145C122.189 235.6 123.133 238.245 123.7 240.889C124.078 243.533 124.267 246.367 124.078 249.011C123.889 252.789 122 256 120.111 259.022C118.6 261.478 116.522 263.933 116.522 266.767C116.522 268.467 116.522 271.678 114.822 272.433C114.256 272.622 113.689 272.622 113.122 272.811C112.178 273.189 111.045 273.945 110.289 274.7C108.967 275.645 108.022 277.156 106.511 277.911C105.189 278.667 103.867 279.611 102.356 280.178C98.7667 281.5 95.7445 279.8 93.289 277.345C90.4556 274.511 87.6223 272.245 86.8667 268.089C86.3001 265.445 86.489 262.611 86.3001 259.967C86.1112 257.133 84.789 254.489 83.4667 252.033C82.7112 250.711 81.389 249.578 81.0112 248.067C80.6334 246.745 81.5779 245.611 81.7667 244.478C82.5223 241.267 82.9001 238.245 84.0334 235.222Z" fill="#FFC7AD"/>
<path d="M104.433 248.256C101.6 251.278 102.167 257.133 98.2001 259.211C96.1223 260.345 94.4223 259.211 92.9112 257.511C92.1556 256.567 91.4001 255.622 91.0223 254.489C90.6445 253.545 90.8334 252.033 90.2667 251.089C88.9445 248.822 88.3779 251.467 87.8112 252.789C87.2445 254.678 86.6779 256.756 84.2223 255.622C79.8779 253.922 79.1223 245.8 79.1223 242.022C79.1223 236.545 81.389 231.633 84.9779 227.478C87.2445 225.022 91.7779 224.078 91.7779 224.078C91.7779 224.078 94.0445 221.622 98.7667 220.678C106.322 219.167 114.067 222.567 119.356 227.856C121.811 230.311 123.7 233.145 125.022 236.167C125.967 238.622 126.911 241.078 127.1 243.911C127.289 246.178 126.345 248.067 125.211 250.144C124.645 251.089 124.078 252.222 123.322 253.167C121.811 254.678 120.489 252.789 119.167 251.845C117.845 250.522 116.333 249.767 114.633 248.822C113.878 248.445 113.311 248.256 112.556 247.878C111.233 247.311 110.1 246.556 108.4 246.367C106.889 246.367 105.378 247.122 104.433 248.256Z" fill="#C99C83"/>
<path d="M91.5889 249.389C88.5667 247.311 85.5444 250.711 85.9222 255.056C86.1111 256.378 86.6778 257.7 87.0556 258.833C89.8889 266.956 94.2333 262.611 93.4778 259.967C91.5889 253.733 95.3667 252.033 91.5889 249.389Z" fill="#FFC7AD"/>
<path d="M89.1333 256.378C88.9445 255.811 86.6778 251.844 89.8889 251.844C90.8333 251.844 91.2111 252.789 90.8333 253.544C90.6445 253.922 90.2667 254.3 90.2667 254.678C90.2667 254.867 90.0778 255.244 90.0778 255.433C90.0778 256.189 90.8333 257.133 90.2667 257.7C89.5111 258.267 89.1333 256.756 89.1333 256.378Z" fill="#F3A984"/>
<path d="M189.433 147.767L206.244 157.589V160.045V181.767L146.178 196.689L189.433 147.767Z" fill="#E1DEF8"/>
<path d="M159.778 190.267L206.245 157.589L210.022 166.089L159.778 190.267Z" fill="#B4A4F5"/>
<path d="M215.5 162.878L235.711 174.589L206.244 181.767L159.967 190.267L215.5 162.878Z" fill="#E1DEF8"/>
<path d="M283.311 0.43335L258.945 14.6V18.1889V49.7333L345.833 71.2667L283.311 0.43335Z" fill="#E1DEF8"/>
<path d="M326.378 62.0112L258.945 14.6L253.656 26.8778L326.378 62.0112Z" fill="#B4A4F5"/>
<path d="M245.533 22.3445L216.445 39.1556L258.945 49.7334L325.811 61.8223L245.533 22.3445Z" fill="#E1DEF8"/>
<path d="M354.711 506.278L290.489 469.256L354.333 432.422L418.745 469.444L354.711 506.278Z" fill="#7E39FF"/>
<path d="M418.745 469.444L354.711 506.278V577.678L418.745 540.844V469.444Z" fill="#7E39FF"/>
<path d="M290.489 469.256L354.711 506.278V577.678L290.489 540.656V469.256Z" fill="#5F0AFF"/>
<path d="M309.189 536.689V497.211L319.767 503.256C322.789 504.956 325.433 507.411 327.889 510.245C330.345 513.267 332.044 516.478 333.367 520.067C334.689 523.656 335.445 527.433 335.445 531.022V532.911C335.445 536.5 334.878 539.522 333.556 541.6C332.233 543.678 330.345 544.811 328.078 545C325.622 545.189 322.978 544.433 319.956 542.733L309.189 536.689ZM316.367 507.789V534.045L319.767 535.933C322.6 537.445 324.678 537.633 326 536.5C327.511 535.178 328.267 532.722 328.267 528.944V526.867C328.267 522.9 327.511 519.311 326.189 516.478C324.678 513.644 322.6 511.378 319.956 509.678L316.367 507.789Z" fill="#E1DEF8"/>
<path d="M347.911 422.033L283.689 384.822L347.533 347.989L411.756 385.011L347.911 422.033Z" fill="#EDECF8"/>
<path d="M411.756 385.011L347.911 422.033V493.433L411.756 456.411V385.011Z" fill="#BFBEED"/>
<path d="M283.689 384.822L347.911 422.033V493.433L283.689 456.222V384.822Z" fill="#E1DEF8"/>
<path d="M328.456 467.367L321.467 463.211L307.678 429.4V455.278L300.689 451.122V411.644L307.678 415.8L321.467 449.8V423.733L328.456 427.7V467.367Z" fill="#323974"/>
<path d="M362.833 335.145L298.422 297.933L362.456 261.1L426.678 298.122L362.833 335.145Z" fill="#3C4384"/>
<path d="M426.678 298.122L362.833 335.145V406.356L426.678 369.522V298.122Z" fill="#272E67"/>
<path d="M298.422 297.933L362.833 335.144V406.356L298.422 369.333V297.933Z" fill="#323974"/>
<path d="M336.956 370.845L324.678 363.667L322.411 370.467L314.856 366.122L327.511 334.011L334.122 337.789L346.967 384.633L339.411 380.289L336.956 370.845ZM326.567 358.189L335.067 363.1L330.722 345.911L326.567 358.189Z" fill="#E1DEF8"/>
<path d="M251.956 299.256C253.467 300.578 255.167 302.278 254.789 304.167C254.6 306.056 252.9 306.811 251.767 308.322C250.822 309.456 250.067 310.778 249.122 311.911C245.911 315.878 242.7 319.844 239.3 323.622C237.789 325.322 236.278 327.211 234.767 328.911C230.233 334.011 225.322 338.544 219.845 342.511C217.767 344.022 214.367 346.856 211.722 347.233C209.078 347.611 207 346.1 205.3 344.022C202.089 340.433 200.389 335.711 202.278 331.367C204.167 326.833 207.945 324 211.533 321.167C219.278 314.933 227.778 309.833 234.956 303.033C237.033 300.956 239.489 298.311 242.133 297.178C245.345 295.856 249.311 296.8 251.578 299.067C251.767 299.067 251.767 299.256 251.956 299.256Z" fill="#EDECF8"/>
<path d="M320.333 243.911L344.889 290.189L293.322 350.445L268.767 304.356L320.333 243.911Z" fill="#7E39FF"/>
<path d="M268.767 304.356L293.322 350.445L233.256 317.2L208.7 271.111L268.767 304.356Z" fill="#5F0AFF"/>
<path d="M245.911 302.089C247.8 303.033 249.311 304.167 250.444 305.3C251.767 306.433 252.522 307.567 253.278 308.889C253.844 310.022 253.844 310.778 253.278 310.778C252.711 310.967 251.578 310.589 249.878 309.645L244.4 306.622L240.433 299.067L245.911 302.089ZM244.778 316.256L251.578 320.033L246.667 310.778L252.144 313.8L263.289 326.456L270.655 330.422L270.467 330.233L257.811 316.067C259.511 316.445 260.455 316.445 260.833 315.689C261.211 315.122 260.833 313.989 260.078 312.289C258.755 309.833 256.678 307.378 253.844 304.922C251.011 302.467 247.611 300.011 243.833 297.933L231.555 291.133L244.778 316.256Z" fill="#E1DEF8"/>
<path d="M320.333 243.911L268.767 304.356L208.7 271.111L260.267 210.667L320.333 243.911Z" fill="#7E39FF"/>
<path d="M227.967 566.156C227.022 563.889 225.889 560.3 223.433 559.356C221.545 558.6 219.656 559.733 217.956 560.867C216.067 562 212.289 564.078 210.022 564.456C208.889 564.645 209.078 551.422 209.645 549.533L196.422 556.333C198.122 565.211 197.556 567.1 196.422 570.5L196.989 571.445V576.356H215.122V576.922C216.067 576.356 216.822 575.978 217.767 575.411C220.222 574.278 222.867 573.522 225.133 572.389C226.645 571.633 228.345 570.5 228.345 568.611C228.722 567.856 228.345 566.911 227.967 566.156Z" fill="#F3A984"/>
<path d="M196.8 579C196.8 579.189 196.8 579.189 196.8 579.378C196.8 580.133 196.8 580.7 196.8 581.456C196.8 582.778 196.989 584.478 197.744 585.611C198.122 585.989 198.5 586.178 198.878 586.556C199.256 586.744 199.822 586.933 200.2 587.122C201.522 587.5 203.222 587.689 204.356 587.122C205.867 586.178 206.244 583.533 205.678 581.644C204.922 579.378 203.6 579 201.9 578.811C200.389 578.622 199.067 578.622 197.556 578.811C196.989 578.433 196.989 578.622 196.8 579Z" fill="#272E67"/>
<path d="M196.611 570.689C196.8 570.878 198.878 573.145 201.333 573.711C203.978 574.278 208.511 573.522 210.778 571.822C212.478 570.5 214.178 568.611 214.933 566.722C215.311 565.967 215.689 565.022 215.5 564.078C215.5 563.7 214.556 562.756 214.178 562.945C215.5 562.378 216.822 561.622 217.956 560.867C219.656 559.733 221.544 558.6 223.433 559.356C225.889 560.3 227.022 563.889 227.967 566.156C228.344 566.911 228.722 567.856 228.533 568.611C228.344 570.311 226.833 571.445 225.322 572.389C222.867 573.522 220.411 574.278 217.956 575.411C216.444 576.167 215.122 576.922 213.611 577.867C212.667 578.433 211.911 578.811 210.967 579.378C210.211 579.756 209.644 580.322 208.889 580.7C208.511 580.889 208.133 581.267 207.567 581.645C206.622 582.4 205.678 582.967 204.733 583.345C203.411 584.1 201.711 584.289 200.2 584.1C199.822 584.1 199.256 583.911 198.878 583.722C198.311 583.533 197.933 583.345 197.367 582.967C196.611 582.211 196.044 581.267 195.856 580.322C195.478 578.811 195.478 577.111 195.478 575.411C195.478 574.467 195.667 573.522 195.856 572.578C195.856 572.2 196.044 571.822 196.044 571.256C196.422 571.445 196.611 570.689 196.611 570.689Z" fill="#323974"/>
<path d="M209.456 562.189C210.022 565.967 208.322 563.889 207 565.022C204.167 567.856 201.144 567.667 198.878 565.589C197.744 564.267 197.744 562.189 197.367 560.489C195.856 552.933 194.344 551.045 192.833 546.7C190.756 541.033 190.189 534.989 190.567 528.945C190.944 522.9 192.078 517.045 193.4 511.189C193.778 509.678 194.156 508.167 194.156 506.656C194.156 505.711 193.589 504.767 193.589 503.822C193.4 500.8 194.911 497.589 195.1 494.567C195.289 492.489 195.1 490.411 196.233 488.522C198.311 485.311 202.844 484.933 206.244 486.633C208.889 487.956 211.156 490.033 212.856 492.3C214.367 494.567 214.556 497.967 214.744 500.8C214.933 504.2 214.933 507.6 214.744 510.811C214.178 518.933 212.478 526.678 211.344 534.611C210.778 537.822 210.4 540.845 210.211 544.056C209.644 548.967 208.889 557.656 209.456 562.189Z" fill="#F3A984"/>
<path d="M182.822 367.822C180.745 361.589 179.611 354.978 179.422 348.178C179.422 343.078 177.911 335.522 183.956 332.689C187.167 331.178 191.7 332.122 194.533 333.633C195.478 334.2 199.256 335.9 200.011 336.278C205.3 338.545 210.4 341 215.311 343.456C218.145 344.967 220.978 346.1 224 347.422C228.345 349.311 231.367 351.956 234.389 355.545C236.845 358.378 239.111 361.589 240.433 365.178C241.756 369.145 241.756 372.922 241.567 377.267C241.378 380.289 234.956 401.256 239.489 415.422C241 419.956 240.811 422.6 236.656 426.567C234.389 428.645 231.745 427.7 229.1 427.322C226.267 426.945 223.622 427.889 220.789 427.7C213.045 427.322 204.167 426.756 197.367 422.789C194.722 421.278 192.456 419.011 192.267 415.8C192.267 413.345 193.4 412.211 194.533 410.322C196.422 407.678 196.045 403.9 195.478 400.878C194.911 397.856 194.156 395.022 193.211 392.189C192.078 388.789 190.756 385.578 189.433 382.367C187.545 378.211 185.656 374.245 183.956 370.089C183.389 369.333 183.011 368.578 182.822 367.822Z" fill="#E1DEF8"/>
<path d="M235.9 510.244C235.9 509.678 235.711 505.522 236.089 505.333L219.089 514.589C217.011 515.156 216.067 517.233 215.311 519.122C213.233 524.411 212.289 530.078 212.1 535.744C211.722 541.222 211.156 546.511 212.1 552.178C213.422 561.244 216.822 570.878 218.333 579.944L229.478 579C229.856 576.544 230.045 573.9 230.233 571.444C231.367 561.622 234.578 551.989 234.956 542.167C235.333 535.367 234.767 528.567 235.711 521.767C236.089 519.5 235.711 517.611 235.522 515.344C235.711 513.456 235.9 511.944 235.9 510.244Z" fill="#FFC7AD"/>
<path d="M192.267 330.045C191.7 330.422 192.267 331.367 192.456 331.933C192.833 333.445 192.644 335.145 192.456 336.656C192.456 337.222 192.078 337.978 192.078 338.545C192.078 339.3 192.456 340.056 192.833 340.622C194.533 343.456 198.5 344.4 201.522 345.156C203.978 345.722 206.622 346.1 209.078 345.911C210.211 345.911 211.344 345.722 212.289 345.156C212.667 344.967 213.044 344.778 213.233 344.589C214.367 343.645 214.178 341.756 214.178 340.622C214.367 339.3 214.556 337.978 214.933 336.845C215.5 335.145 217.2 334.011 217.2 334.011C217.2 334.011 207 332.311 202.089 331.367C199.444 330.8 196.8 330.422 193.967 329.856C193.589 329.856 193.211 329.667 192.833 329.667C192.644 329.856 192.456 329.856 192.267 330.045Z" fill="#FFC7AD"/>
<path d="M220.978 298.311C222.489 299.822 223.622 301.522 224.189 303.6C225.133 307.567 224.189 311.533 224.944 315.5C225.7 318.9 224 323.433 223.433 326.833C223.056 329.1 222.489 331.367 220.6 332.689C219.467 333.445 218.144 333.633 217.011 334.389C216.444 334.956 215.122 335.333 214.556 335.9C212.856 337.6 210.022 337.222 207.756 337.222C205.489 337.033 203.222 337.033 200.956 336.278C196.989 334.767 193.967 331.367 191.511 327.967C170.167 300.389 207 284.333 220.978 298.311Z" fill="#FFC7AD"/>
<path d="M184.711 297.367C192.078 284.711 209.645 280.744 220.789 290.756C225.889 295.289 227.211 301.522 222.867 306.811C221.733 308.322 221.167 309.267 220.6 310.967C220.222 312.289 220.6 313.611 219.278 314.556C217.011 316.256 215.5 313.422 213.045 314.745C208.322 317.578 212.289 325.889 208.7 329.856C205.3 333.633 197.178 333.256 193.022 331.178C181.5 325.7 178.667 307.567 184.711 297.367Z" fill="#D6AF75"/>
<path d="M211.533 312.667C207.945 313.044 207.756 317.578 210.778 320.411C211.722 321.356 213.045 321.922 214.178 322.489C221.356 326.833 221.922 320.789 219.656 319.278C214.367 316.067 216.067 312.289 211.533 312.667Z" fill="#FFC7AD"/>
<path d="M213.8 319.089C213.422 318.711 208.889 317.011 211.344 314.933C212.1 314.367 213.044 314.933 213.233 315.689C213.422 316.067 213.233 316.633 213.422 317.011C213.422 317.2 213.611 317.389 213.8 317.578C214.178 318.145 215.5 318.522 215.5 319.278C215.311 320.222 213.989 319.278 213.8 319.089Z" fill="#F3A984"/>
<path d="M217.2 587.5C218.522 584.478 218.9 580.511 217.767 576.733C217.578 576.167 217.767 573.9 217.578 573.145L230.422 569.933C229.856 571.633 229.667 577.111 229.856 579.567C230.045 583.345 234.578 583.533 237.6 583.533C239.867 583.533 242.322 583.533 244.589 583.345L249.122 585.8L247.611 590.145C242.889 593.733 238.356 595.056 232.878 596C228.156 596.756 224.567 599.211 219.656 596.756C218.145 596 216.633 595.622 216.256 593.922C215.5 591.467 216.067 590.333 217.2 587.5Z" fill="#FFC7AD"/>
<path d="M216.256 593.922C216.256 595.056 216.633 596.189 216.822 597.511C217.011 598.644 217.2 599.778 217.767 600.533C218.145 600.911 218.522 601.1 218.9 601.478C219.278 601.667 219.845 601.856 220.222 602.045C221.545 602.422 223.245 602.611 224.378 602.045C225.889 601.1 226.267 598.456 225.7 596.567C224.945 594.3 223.622 593.922 221.922 593.733C220.6 593.544 219.278 593.544 217.767 593.733C217.389 593.356 217.011 593.356 216.256 593.922Z" fill="#272E67"/>
<path d="M222.489 592.222C223.622 592.6 224.756 592.978 225.7 593.167C228.533 593.733 231.178 593.733 234.011 593.356C235.711 592.978 237.411 592.6 239.111 592.222C241.756 591.467 244.4 590.333 245.722 587.878C247.044 585.422 243.644 584.478 241.944 584.289C241 584.1 237.222 583.911 236.278 583.911C235.711 583.911 233.633 583.533 233.633 583.533C233.633 583.533 238.922 582.967 240.811 582.967C242.511 582.967 244.4 582.778 246.1 583.156C247.044 583.345 250.256 583.533 250.822 583.911C252.522 584.667 253.467 586.556 253.844 588.256C254.033 589.2 253.844 590.145 253.467 591.089C253.089 592.033 252.522 592.6 251.767 593.167C250.256 594.111 248.556 594.867 246.856 595.622C244.022 596.567 241.189 596.756 238.356 596.945C237.222 597.133 236.089 597.322 234.956 597.133C233.067 597.133 231.367 597.511 229.667 598.078C228.533 598.456 227.211 598.833 226.078 599.4C223.811 600.533 221.356 599.967 219.089 598.833C217.389 598.078 216.256 596.189 215.878 594.3C215.689 593.167 215.689 591.845 215.878 590.711C216.067 590.145 216.067 589.578 216.444 589.011C216.633 588.822 217.2 587.689 217.2 587.5C217.2 587.5 218.711 590.711 222.489 592.222Z" fill="#323974"/>
<path d="M179.611 379.156C180.178 381.233 182.067 382.745 182.444 385.011C182.633 386.522 182.633 388.033 182.822 389.545C183.011 390.489 183.389 391.245 183.956 392C184.333 392.378 184.9 392.756 185.278 393.133C185.656 393.511 185.844 394.078 186.222 394.456C186.789 395.589 187.167 396.722 187.167 397.856C187.167 399.178 186.222 400.5 184.711 399.933C184.333 399.745 183.011 399.178 183.389 398.422C183.389 398.233 183.767 398.422 183.767 398.233C183.956 397.856 183.767 397.478 183.389 397.289C182.444 397.1 182.444 398.233 182.444 398.8C182.633 402.011 186.222 403.522 188.867 402.2C190.944 401.067 192.456 398.8 193.589 396.911C194.533 395.4 194.911 394.267 194.911 392.567C194.911 391.811 194.911 391.056 194.722 390.3C194.533 389.167 194.156 388.222 193.778 387.278C192.644 384.445 189.622 383.878 187.733 381.8C187.356 381.422 186.789 380.856 186.6 380.289C185.656 378.778 185.467 376.511 186.222 375C187.167 373.3 189.056 372.356 190.189 370.656C191.511 368.767 190.567 366.122 189.433 364.045C188.3 361.967 186.978 359.889 187.544 357.622C188.3 354.6 191.889 353.089 192.456 350.067C193.022 347.611 191.322 345.533 190.756 343.078C190 340.433 190.567 337.6 192.078 335.333C193.022 334.011 194.156 333.067 194.533 331.556C195.1 328.911 192.267 326.456 192.267 323.811C192.267 321.733 194.156 320.033 195.478 318.522C196.611 317.2 197.556 315.689 197.367 313.989C197.178 312.667 196.611 310.778 195.856 309.833C193.211 306.433 186.789 304.356 183.578 308.133C182.067 310.022 181.689 311.533 182.067 313.8C182.633 316.445 182.822 318.9 181.5 321.167C180.178 323.433 178.478 325.322 177.722 327.778C177.344 329.289 177.156 331.367 177.344 333.067C177.533 334.389 178.478 335.145 179.044 336.467C179.8 337.978 180.367 339.678 180.367 341.378C180.178 344.967 177.156 347.989 176.967 351.578C176.778 354.033 177.911 356.489 179.233 358.567C179.611 359.322 180.178 360.267 180.744 361.022C181.122 361.589 181.689 362.345 181.689 363.1C182.067 365.556 180.556 367.256 179.611 369.145C179.044 370.278 178.667 371.6 178.478 372.922C178.478 374.245 178.478 375.378 178.856 376.7C179.044 377.267 179.233 378.022 179.422 378.589C179.611 378.967 179.611 378.967 179.611 379.156Z" fill="#C29E67"/>
<path d="M242.889 457.167C244.589 429.589 239.489 415.611 239.489 415.611C239.489 415.611 205.867 423.167 193.211 412.211C192.455 413.911 191.133 416.745 190.378 418.445C187.733 425.056 186.789 430.911 186.411 438.467C185.844 449.8 186.789 461.889 187.733 473.033C188.678 484.745 188.489 519.122 191.889 519.878C194.533 520.445 197.555 520.256 197.555 520.256C197.555 520.256 200.2 503.633 200.956 501.933C201.9 506.278 201.333 511 201.711 515.533C201.9 517.045 201.9 518.367 202.278 519.878C202.655 521.389 203.789 521.767 205.3 521.956C206.811 522.144 224.755 524.411 233.822 521.956C236.089 521.389 237.222 520.067 237.6 517.611C237.789 515.345 242.322 466.233 242.889 457.167Z" fill="url(#paint0_linear_1_4763)"/>
<path d="M240.056 417.689C239.678 416.367 239.489 415.611 239.489 415.611C239.489 415.611 205.867 423.167 193.211 412.211C192.833 412.778 192.456 413.722 192.078 414.667C197.745 418.256 206.056 419.956 213.422 420.333C222.3 420.9 231.556 419.2 240.056 417.689Z" fill="#252956"/>
<path d="M305.411 320.6C305.033 320.033 304.656 320.222 304.278 320.6C303.9 320.978 303.711 321.356 303.333 321.733C303.333 321.733 302.389 322.678 302.389 322.3C302.389 322.111 302.389 321.733 302.578 321.545C302.767 321.167 302.767 320.789 302.956 320.411C303.144 320.033 303.144 319.845 303.333 319.467C303.522 319.089 303.522 318.9 303.711 318.522C303.9 318.333 303.9 317.956 304.089 317.767C304.278 317.2 304.278 316.633 303.711 316.256C302.956 315.878 302.578 316.822 302.011 317.389C301.822 317.578 301.444 318.711 300.878 318.711C300.5 318.711 300.689 317.2 300.689 316.822C300.878 315.689 301.256 314.556 300.878 313.611C300.689 312.856 300.311 311.911 299.556 312.856C299.178 313.422 298.989 314.178 298.8 314.745C298.611 315.689 298.233 316.445 298.044 317.2C298.044 317.389 297.667 318.711 297.478 318.711C297.289 318.711 297.289 318.333 297.289 318.145C297.1 317.389 296.911 316.822 296.722 316.067C296.533 315.5 296.533 314.933 296.533 314.367C296.344 313.8 296.156 312.1 295.211 312.289C294.267 312.478 294.267 314.178 294.267 314.933C294.267 316.256 294.267 317.767 293.889 319.089C293.511 320.978 292.944 322.678 291.622 324C291.056 324.567 290.3 324.945 289.544 324.945C289.544 323.433 289.922 322.3 290.489 320.789C290.867 319.656 291.056 318.333 290.489 317.2C290.111 316.633 289.733 315.689 288.978 315.878C288.222 315.878 287.844 316.633 287.844 317.2C287.656 317.767 287.844 318.522 287.656 319.089C287.467 319.656 287.278 320.222 286.9 320.789C286.333 321.733 285.767 322.678 285.389 323.622C285.011 324.567 284.822 325.7 284.822 326.833C284.822 327.211 284.822 327.589 285.011 327.967C285.011 328.911 285.011 329.856 285.011 330.8C284.822 333.445 283.122 336.089 282.556 338.733C281.989 341 284.444 341.567 286.333 341.756C288.033 341.945 289.167 341.756 290.489 340.622C291.622 339.678 292.378 338.545 293.322 337.411C294.078 336.656 294.833 335.9 295.589 335.333C295.778 335.145 296.156 334.767 296.344 334.578C297.289 333.822 298.233 333.067 298.989 332.122C300.122 330.989 301.067 329.856 302.011 328.533C302.956 327.4 303.522 326.078 304.278 324.756C304.467 324.378 304.656 324 304.844 323.811C305.6 323.056 306.167 321.733 305.411 320.6Z" fill="#FFC7AD"/>
<path d="M232.689 348.933C221.733 346.667 217.578 350.445 216.633 359.322C216.255 363.1 218.333 366.689 221.167 369.145C223.811 371.411 227.211 372.356 230.422 372.733C234.2 373.3 250.067 374.811 254.6 374.811C259.133 374.811 263.478 374.056 268.011 372.922C275.755 371.033 280.855 365.556 285.011 359.133C286.711 356.489 295.589 339.867 295.967 338.356C296.533 336.467 296.155 335.522 294.267 334.578C292 333.445 288.789 332.122 286.144 331.933C282.933 331.745 281.611 333.822 279.722 336.278C278.211 338.167 272.355 348.178 270.089 351.011C268.011 353.656 265.555 355.356 262.155 355.545C257.055 355.733 252.333 354.411 247.422 352.711C242.7 351.011 237.789 350.067 232.689 348.933Z" fill="#EDECF8"/>
<path d="M185.844 380.1C184.711 381.422 183.578 381.8 181.878 381.8C180.556 381.8 180.367 383.689 181.5 384.067C183.767 384.633 185.844 383.311 187.356 381.8C188.678 380.667 186.978 378.967 185.844 380.1Z" fill="#272E67"/>
<path d="M432.155 526.489L498.455 487.767V510.056L431.967 548.589L432.155 526.489Z" fill="#BFBEED"/>
<path d="M402.689 509.489L469.178 470.956L498.455 487.767L432.155 526.489L402.689 509.489Z" fill="#EDECF8"/>
<path d="M461.433 565.589L527.922 526.867L527.733 548.211L461.433 586.744V565.589Z" fill="#BFBEED"/>
<path d="M431.967 548.589L498.455 510.056L527.922 526.867L461.433 565.589L431.967 548.589Z" fill="#EDECF8"/>
<path d="M432.155 526.489L431.966 548.589L461.433 565.589V586.744L402.689 552.933V509.489L432.155 526.489Z" fill="#E1DEF8"/>
<path d="M460.678 215.2C459.167 215.955 456.333 217.844 456.144 219.733C455.956 221.433 457.656 223.889 458.411 225.211C460.3 229.744 462.378 234.089 464.644 238.622C465.589 240.7 466.533 242.589 467.478 244.667C470.5 250.522 473.9 255.811 477.867 260.911C479.378 262.8 481.833 266.2 484.289 266.956C486.556 267.9 489.011 266.767 491.089 265.255C494.867 262.422 501.289 263.744 500.533 259.022C499.967 254.3 493.733 245.422 491.089 241.833C485.044 233.522 478.433 225.778 471.444 218.411C470.122 217.089 468.989 215.767 467.289 215.011C465.589 213.878 462.944 214.067 460.678 215.2Z" fill="#EDECF8"/>
<path d="M537.556 290.944C537.367 299.822 532.644 315.122 517.533 301.144C508.467 292.644 492.978 279.044 484.478 269.978C474.844 259.778 478.056 252.222 482.967 249.011C489.767 244.856 493.545 249.578 494.3 250.144C521.122 266.955 537.745 283.956 537.556 290.944Z" fill="#EDECF8"/>
<path d="M497.511 202.356L470.311 249.2L410.622 283.956L437.822 237.111L497.511 202.356Z" fill="#BFBEED"/>
<path d="M437.822 237.111L410.622 283.956L356.789 222L383.989 175.156L437.822 237.111Z" fill="#E1DEF8"/>
<path d="M402.689 221.433C404.2 223.133 405.144 224.644 405.522 226.156C405.9 227.667 405.9 228.989 405.333 229.933C404.011 232.2 401.933 231.822 399.1 228.611L393.622 222.189L397.589 215.389L402.689 221.433ZM395.7 231.256C398.722 234.844 399.667 237.678 398.533 239.756C397.778 240.889 397.022 241.267 395.889 240.889C394.756 240.511 393.433 239.378 391.733 237.489L387.389 232.578L391.167 226.156L395.7 231.256ZM378.889 229.745L389.278 241.644C392.867 245.8 395.889 248.256 398.533 249.2C400.989 250.144 403.067 249.389 404.389 247.122C405.144 245.8 405.333 244.289 405.144 242.589C404.956 240.7 404.389 238.811 403.256 236.922C404.956 238.433 406.467 239 407.978 239C409.489 239 410.622 238.244 411.378 236.922C412.889 234.467 412.889 231.633 411.944 228.233C410.811 224.833 408.733 221.245 405.333 217.467L393.811 204.245L378.889 229.745Z" fill="#323974"/>
<path d="M497.511 202.356L437.822 237.111L383.989 175.156L443.867 140.4L497.511 202.356Z" fill="#EDECF8"/>
<path d="M391.733 252.978C392.111 252.411 392.489 252.6 392.867 252.978C393.244 253.356 393.433 253.733 393.811 254.111C393.811 254.111 394.755 255.056 394.755 254.867C394.755 254.678 394.755 254.3 394.567 253.922C394.378 253.544 394.378 253.167 394.189 252.789C394 252.411 394 252.222 393.811 251.845C393.622 251.467 393.622 251.278 393.244 250.9C393.056 250.711 393.055 250.333 392.867 250.144C392.678 249.578 392.678 249.011 393.244 248.633C394 248.256 394.567 249.2 394.944 249.767C395.133 249.956 395.7 251.278 396.078 251.278C396.456 251.278 396.267 249.578 396.267 249.389C396.078 248.256 395.7 247.122 395.889 245.989C396.078 245.233 396.644 244.289 397.211 245.233C397.589 245.8 397.778 246.556 397.967 247.311C398.156 248.256 398.533 249.011 398.722 249.956C398.722 250.145 399.1 251.467 399.289 251.467C399.478 251.467 399.478 251.089 399.667 250.9C399.856 250.145 400.044 249.389 400.233 248.633C400.422 248.067 400.422 247.311 400.422 246.745C400.611 246.178 400.8 244.289 401.744 244.478C402.689 244.667 402.689 246.556 402.689 247.311C402.689 248.822 402.689 250.144 403.067 251.656C403.444 253.544 404.011 255.433 405.522 256.756C406.089 257.322 407.033 257.889 407.789 257.7C407.789 256.189 407.411 254.867 406.844 253.356C406.467 252.033 406.089 250.9 406.844 249.578C407.222 249.011 407.6 248.067 408.356 248.067C409.111 248.067 409.489 248.822 409.678 249.389C409.867 249.956 409.678 250.711 409.867 251.467C410.055 252.033 410.244 252.6 410.622 253.167C411.189 254.111 411.944 255.245 412.322 256.189C412.7 257.322 412.889 258.456 412.889 259.589C412.889 259.967 412.889 260.345 412.7 260.911C412.7 261.856 412.7 262.8 412.7 263.933C412.889 266.767 414.589 269.411 415.344 272.245C415.911 274.7 413.456 275.078 411.378 275.456C409.678 275.644 408.355 275.267 407.033 274.322C405.9 273.378 405.144 272.056 404.011 270.922C403.255 270.167 402.5 269.411 401.744 268.656C401.556 268.467 401.178 268.089 400.989 267.9C400.044 267.144 399.1 266.2 398.156 265.256C397.022 264.122 395.889 262.8 394.944 261.478C394 260.156 393.433 258.833 392.678 257.511C392.489 257.133 392.3 256.756 391.922 256.378C391.544 255.433 390.978 253.922 391.733 252.978Z" fill="#FFC7AD"/>
<path d="M518.855 529.889C518.289 528.378 517.344 528.944 516.211 528.756C514.7 528.378 513.378 527.622 512.244 526.678C510.733 525.544 509.411 524.222 508.089 522.9C504.5 519.689 500.344 517.044 495.811 515.344C492.978 514.211 489.767 513.267 486.744 514.4C485.044 514.967 483.533 516.1 482.4 517.611C481.267 519.122 481.267 520.633 481.455 522.333C481.455 523.467 481.644 524.6 482.022 525.733C482.778 528 484.478 529.7 486.178 531.4C488.255 533.289 490.333 534.989 492.789 536.122C494.867 537.067 497.133 537.445 499.022 538.578C500.344 539.333 501.478 540.278 502.422 541.411C503.178 542.356 503.744 543.489 504.878 544.056C506.956 545.189 509.6 546.133 512.055 546.133C516.967 546.133 520.933 542.922 520.744 537.822C520.744 535.933 520.178 534.233 519.8 532.533C519.233 531.4 519.233 530.645 518.855 529.889Z" fill="#261D22"/>
<path d="M492.6 396.344C492.6 394.833 526.6 368.2 526.6 368.2C527.544 374.433 528.678 390.867 527.733 406.356C526.789 421.089 523.578 444.889 522.633 459.811C522.067 470.011 522.067 490.789 521.878 500.989C521.878 511 520.933 521.011 520.367 531.022C520.178 533.289 519.989 535.556 518.289 537.256C516.778 538.956 514.133 539.9 512.056 540.089C508.467 540.467 504.689 539.144 502.044 536.689C500.344 534.989 500.533 531.778 500.156 529.7C499.967 527.811 499.778 525.733 499.778 523.844C499.589 518.178 499.589 512.511 499.4 506.844C499.211 500.8 498.833 494.756 498.456 488.9C498.267 484.933 497.889 480.967 497.511 477.189C497.322 475.111 497.133 462.267 496.944 460.189C496.378 454.144 495.244 448.1 494.678 441.867C493.544 430.344 492.789 418.633 492.6 407.111C492.6 404.278 492.411 401.256 492.411 398.422C492.6 397.478 492.6 396.911 492.6 396.344Z" fill="#272E67"/>
<path d="M472.2 487.2C471.255 485.878 470.311 486.633 469.178 486.633C467.667 486.633 465.967 486.067 464.644 485.311C462.944 484.556 461.244 483.422 459.544 482.478C455.2 480.022 450.289 478.322 445.189 477.567C442.922 477.189 440.278 477.189 438.2 477.944C436.5 478.511 434.8 479.267 433.667 480.589C432.722 481.533 431.778 482.856 431.589 484.178C431.4 485.5 431.778 487.011 432.156 488.144C432.533 489.278 432.911 490.6 433.478 491.544C434.8 493.622 436.878 495.133 438.955 496.267C441.411 497.778 444.055 499.1 446.889 499.667C449.155 500.044 451.611 500.044 453.878 500.8C455.389 501.178 456.711 502.122 458.033 503.067C458.978 503.822 459.922 504.767 461.055 505.144C463.511 505.9 466.344 506.278 468.989 505.711C474.089 504.578 477.3 500.422 475.978 495.322C475.6 493.433 474.656 491.733 473.711 490.033C472.956 488.711 472.578 487.767 472.2 487.2Z" fill="#261D22"/>
<path d="M462.189 311.911C462 313.611 462.378 317.011 464.078 317.956C465.4 318.9 468.422 318.522 469.933 318.711C474.844 319.089 479.755 319.467 484.478 319.845C486.744 320.033 488.822 320.222 491.089 320.222C497.511 320.411 503.933 320.033 510.355 318.9C512.811 318.522 516.967 317.956 518.855 316.256C520.744 314.556 520.933 312.1 520.555 309.456C519.989 304.733 517.722 300.2 513.189 298.5C508.844 296.8 504.311 297.556 499.967 298.122C489.767 299.445 479.755 301.333 469.933 303.978C468.233 304.356 466.344 304.922 465.022 306.056C463.322 307.189 462.378 309.456 462.189 311.911Z" fill="white"/>
<path d="M476.167 371.978H526.978C526.978 371.411 526.978 370.844 526.978 370.089C526.978 369.522 526.978 368.956 526.978 368.578C527.167 358.378 526.6 347.8 528.3 337.6C528.489 336.089 528.867 334.389 529.244 332.878C530.567 327.589 532.455 322.3 533.778 317.011C535.289 310.589 537.555 304.356 538.122 297.744C538.122 297.744 538.122 297.744 538.122 297.556C538.5 293.4 538.5 288.489 536.044 284.9C534.722 283.011 532.833 281.878 530.755 281.122C527.733 279.989 524.9 278.856 521.878 277.911C520.178 277.344 518.478 276.211 516.589 276.022C511.3 275.456 506.2 276.967 501.1 278.478C499.589 278.856 497.7 279.422 496.755 280.744C495.811 282.256 494.678 283.578 493.356 284.9C490.711 287.356 487.689 289.433 484.667 291.133C482.022 292.833 479.189 294.156 476.733 296.044C474.278 297.744 472.389 299.633 472.578 302.844C472.578 303.978 473.333 312.1 473.522 314.933C473.9 318.711 476.355 362.156 476.167 365.556C476.544 367.067 476.355 371.978 476.167 371.978Z" fill="#E1DEF8"/>
<path d="M492.978 306.433C492.6 315.122 485.989 319.089 473.333 317.011C454.256 313.989 439.333 313.233 429.322 310.022C426.3 309.078 422.333 304.544 424.789 298.311C427.622 290.944 435.367 290.756 437.633 290.944C460.678 292.267 468.8 291.133 474.844 291.511C478.244 291.889 493.544 291.511 492.978 306.433Z" fill="#EDECF8"/>
<path d="M407.033 266.767C405.522 267.522 403.067 269.789 403.067 271.678C403.067 273.378 404.956 275.645 405.711 276.967C408.167 281.311 410.622 285.467 413.078 289.622C414.211 291.511 415.344 293.4 416.478 295.289C419.311 299.633 422.333 304.356 426.111 307.945C428.378 310.211 432.344 310.211 435.367 309.645C439.333 308.889 443.3 306.245 444.811 302.278C446.7 297.178 443.111 293.778 439.9 290.189C433.1 282.445 425.922 275.267 418.178 268.656C416.856 267.522 415.344 266.2 413.644 265.633C411.756 265.067 409.3 265.445 407.033 266.767Z" fill="#EDECF8"/>
<path d="M492.033 275.833C491.655 272.811 489.389 273.567 490.522 270.733C491.467 268.467 492.978 266.2 495.055 264.689C497.133 263.178 499.589 262.233 502.044 262.422C502.989 262.422 503.555 262.989 504.311 262.989C506.767 262.989 509.033 262.611 511.489 262.8C513.755 263.178 516.022 263.367 516.022 266.011C516.022 269.6 515.833 273 516.967 276.4C517.533 278.289 518.478 279.989 518.667 282.067C519.044 285.845 494.3 288.867 492.978 286.789C492.033 285.089 491.844 285.656 492.033 283.956C492.222 281.122 492.6 278.478 492.033 275.833Z" fill="#FFC7AD"/>
<path d="M491.844 283.767C491.089 286.033 490.9 286.789 491.278 287.922C492.6 290.756 500.156 290.944 502.044 290.944C504.311 290.944 517.911 288.111 519.044 282.633C519.233 282.067 517.722 278.667 517.344 278.289C515.267 280.367 507.9 284.333 502.8 284.9C499.4 285.278 495.811 284.9 491.844 283.767Z" fill="#EDECF8"/>
<path d="M483.722 237.111C482.211 238.811 481.267 240.889 480.889 243.156C480.133 248.256 482.211 253.545 481.078 258.645C479.944 263.556 482.022 274.7 491.844 277.533C496.755 279.045 506.389 277.345 509.6 275.833C513.756 273.756 516.589 269.789 519.044 265.822C539.067 233.711 497.511 220.489 483.722 237.111Z" fill="#FFC7AD"/>
<path d="M523.011 232.389C522.067 231.445 520.744 230.5 519.422 229.745C519.044 229.556 518.478 229.367 518.1 228.989C517.911 228.8 517.722 228.422 517.533 228.045C516.778 226.533 515.456 225.589 514.133 224.645C508.656 221.622 502.233 221.433 496 222.378C493.922 222.756 491.844 223.133 489.956 223.889C487.689 224.833 485.8 226.345 484.1 227.856C481.644 230.122 479.378 232.767 478.056 235.978C477.489 237.489 477.3 239 476.922 240.511C476.544 241.833 476.922 243.345 478.056 244.289C478.622 244.667 479.189 244.856 479.567 245.233C481.644 246.556 482.022 249.767 482.967 252.033C483.533 253.356 484.667 254.111 485.044 255.622C485.422 257.133 485.422 258.833 485.8 260.156C485.989 260.911 486.556 261.667 487.311 261.667C487.689 261.667 487.878 261.667 488.256 261.478C489.2 260.911 489.578 259.967 489.767 259.022C490.144 258.078 490.144 256.945 490.711 256.189C490.711 256 490.9 256 491.089 255.811C491.278 255.811 491.278 255.811 491.467 255.811C492.411 256 493.167 256.756 493.733 257.7C494.3 258.833 494.678 259.967 495.056 261.1C495.622 262.989 495.622 264.5 495.811 266.389C496 268.278 496.567 270.167 497.889 271.678C500.911 274.889 506.389 274.7 510.356 273.756C511.678 273.378 513.189 273.189 514.322 272.433C517.344 270.922 519.233 268.278 521.122 265.633C522.822 263.178 524.522 260.722 525.467 257.889C526.033 256.189 526.222 254.678 526.411 252.978C527.167 246.178 527.922 237.489 523.011 232.389Z" fill="#C99C83"/>
<path d="M494.678 251.278C498.456 250.522 500.156 255.056 498.078 259.211C497.511 260.345 496.189 261.478 495.433 262.611C489.389 269.411 486.745 263.367 488.633 261.1C492.978 255.433 489.956 252.222 494.678 251.278Z" fill="#FFC7AD"/>
<path d="M494.678 258.644C495.056 258.267 499.022 254.867 495.811 253.545C494.867 253.167 494.111 254.111 494.111 254.867C494.111 255.244 494.3 255.811 494.3 256.189C494.3 256.378 494.3 256.756 494.111 256.945C493.733 257.7 492.6 258.456 492.978 259.4C493.356 260.345 494.489 258.833 494.678 258.644Z" fill="#F3A984"/>
<path d="M435.933 433.933C438.389 446.022 447.833 487.011 450.667 492.867C452.178 495.889 453.689 496.833 457.089 497.211C460.111 497.589 463.322 496.833 465.967 495.7C468.611 494.567 471.822 492.867 472.767 489.845C473.145 488.522 472.389 486.633 472.2 485.311C471.256 480.967 470.122 476.622 469.178 472.278C467.478 465.1 465.967 447.345 464.078 440.167C462.567 434.5 460.867 428.645 459.167 422.978C458.411 420.333 458.411 421.467 457.656 418.822C457.089 416.745 456.9 413.533 455.578 411.645C452.933 408.245 455.767 394.078 455.767 394.078C455.767 394.078 441.978 407.111 439.144 410.7C431.778 419.389 434.611 427.889 435.933 433.933Z" fill="#323974"/>
<path d="M527.544 370.844C527.167 368.767 526.978 364.8 526.978 364.8C503.367 376.322 476.356 365.744 476.356 365.744C476.356 365.744 475.978 369.711 475.222 371.6C492.789 378.589 510.167 379.156 527.544 370.844Z" fill="#252956"/>
<path d="M483.156 367.822C483.156 369.9 483.156 372.167 483.156 374.245C484.478 374.622 485.8 375 487.122 375.189C487.122 372.733 487.122 370.467 487.122 368.767C485.611 368.389 484.289 368.011 483.156 367.822Z" fill="#323974"/>
<path d="M518.1 368.2C518.1 370.278 518.1 372.544 518.1 374.622C519.422 374.244 520.744 373.867 522.066 373.3C522.066 371.222 522.066 369.144 522.066 367.067C520.744 367.444 519.422 367.822 518.1 368.2Z" fill="#323974"/>
<path d="M475.411 371.6C474.278 374.244 472.011 378.4 467.289 382.744C464.078 385.578 443.3 405.6 441.6 408.433C440.089 410.889 439.711 413.911 439.144 416.556C438.011 421.278 445.566 421.844 446.7 426.567C448.211 432.8 446.511 436.011 452.178 437.144C453.878 437.522 455.578 437.522 457.089 436.956C458.033 436.578 458.789 436.011 459.355 435.444C465.211 430.533 467.1 428.644 473.522 424.3C488.444 413.911 504.122 414.1 519.611 404.467C523.2 402.2 526.033 398.233 526.978 394.078C527.544 391.056 528.489 377.078 527.544 370.656C510.167 379.156 492.789 378.589 475.411 371.6Z" fill="#323974"/>
<path d="M380.022 615.833L315.8 578.622L379.644 541.789L443.867 579L380.022 615.833Z" fill="#3C4384"/>
<path d="M443.867 579L380.022 615.833V687.233L443.867 650.4V579Z" fill="#272E67"/>
<path d="M315.8 578.622L380.022 615.833V687.233L315.8 650.022V578.622Z" fill="url(#paint1_linear_1_4763)"/>
<path d="M296.344 646.811L258.567 624.9L295.967 603.367L333.744 625.089L296.344 646.811Z" fill="#EDECF8"/>
<path d="M333.744 625.089L296.344 646.811V688.556L333.744 667.022V625.089Z" fill="#BFBEED"/>
<path d="M258.567 624.9L296.344 646.811V688.556L258.567 666.833V624.9Z" fill="#E1DEF8"/>
<defs>
<linearGradient id="paint0_linear_1_4763" x1="215.314" y1="417.665" x2="213.031" y2="512.421" gradientUnits="userSpaceOnUse">
<stop stop-color="#323974"/>
<stop offset="1" stop-color="#272E67"/>
</linearGradient>
<linearGradient id="paint1_linear_1_4763" x1="345.174" y1="589.911" x2="351.742" y2="693.811" gradientUnits="userSpaceOnUse">
<stop stop-color="#323974"/>
<stop offset="1" stop-color="#272E67"/>
</linearGradient>
</defs>
</svg>
