<svg width="38" height="38" viewBox="0 0 38 38" fill="none" xmlns="http://www.w3.org/2000/svg">
<rect width="37.193" height="37.193" rx="10" fill="#222939"/>
<g clip-path="url(#clip0_1_1240)">
<path d="M27.083 22.1999L28.285 22.9209C28.3591 22.9653 28.4205 23.0282 28.4631 23.1034C28.5058 23.1786 28.5282 23.2635 28.5282 23.3499C28.5282 23.4364 28.5058 23.5213 28.4631 23.5965C28.4205 23.6717 28.3591 23.7346 28.285 23.7789L19.515 29.0409C19.3594 29.1344 19.1814 29.1838 19 29.1838C18.8185 29.1838 18.6405 29.1344 18.485 29.0409L9.71498 23.7789C9.64082 23.7346 9.57944 23.6717 9.53682 23.5965C9.4942 23.5213 9.4718 23.4364 9.4718 23.3499C9.4718 23.2635 9.4942 23.1786 9.53682 23.1034C9.57944 23.0282 9.64082 22.9653 9.71498 22.9209L10.917 22.1999L19 27.0499L27.083 22.1999ZM27.083 17.4999L28.285 18.2209C28.3591 18.2653 28.4205 18.3282 28.4631 18.4034C28.5058 18.4786 28.5282 18.5635 28.5282 18.6499C28.5282 18.7364 28.5058 18.8213 28.4631 18.8965C28.4205 18.9717 28.3591 19.0346 28.285 19.0789L19 24.6499L9.71498 19.0789C9.64082 19.0346 9.57944 18.9717 9.53682 18.8965C9.4942 18.8213 9.4718 18.7364 9.4718 18.6499C9.4718 18.5635 9.4942 18.4786 9.53682 18.4034C9.57944 18.3282 9.64082 18.2653 9.71498 18.2209L10.917 17.4999L19 22.3499L27.083 17.4999ZM19.514 8.30895L28.285 13.5709C28.3591 13.6153 28.4205 13.6782 28.4631 13.7534C28.5058 13.8286 28.5282 13.9135 28.5282 13.9999C28.5282 14.0864 28.5058 14.1713 28.4631 14.2465C28.4205 14.3217 28.3591 14.3846 28.285 14.4289L19 19.9999L9.71498 14.4289C9.64082 14.3846 9.57944 14.3217 9.53682 14.2465C9.4942 14.1713 9.4718 14.0864 9.4718 13.9999C9.4718 13.9135 9.4942 13.8286 9.53682 13.7534C9.57944 13.6782 9.64082 13.6153 9.71498 13.5709L18.485 8.30895C18.6405 8.2155 18.8185 8.16614 19 8.16614C19.1814 8.16614 19.3594 8.2155 19.515 8.30895H19.514ZM19 10.3319L12.887 13.9999L19 17.6679L25.113 13.9999L19 10.3319Z" fill="white"/>
</g>
<defs>
<clipPath id="clip0_1_1240">
<rect width="24" height="24" fill="white" transform="translate(7 7)"/>
</clipPath>
</defs>
</svg>
