<svg width="105" height="26" viewBox="0 0 105 26" fill="none" xmlns="http://www.w3.org/2000/svg">
<path d="M12.5673 18.3185C13.2381 18.3543 13.909 18.2228 14.522 17.9476C15.0193 17.7084 15.4704 17.3974 15.8753 17.0146C16.2801 16.6199 16.6155 16.1534 16.87 15.639L24.5501 16.6079C24.1453 18.3185 23.405 19.9333 22.364 21.3328C21.8898 21.9668 21.3693 22.541 20.791 23.0673C20.1548 23.6534 19.4377 24.1438 18.6743 24.5266C17.7953 24.9692 16.87 25.3161 15.9215 25.5314C14.7649 25.7946 13.5967 25.9142 12.4169 25.8663C9.05107 25.8065 5.83561 24.3711 3.47606 21.8831C2.35412 20.6869 1.47507 19.2754 0.873616 17.7204C-0.363991 14.4668 -0.283026 10.8304 1.09338 7.63658C1.75266 6.10547 2.70111 4.72987 3.86932 3.58154C6.33297 1.20114 9.60626 -0.0907322 12.9721 0.00496203C14.1519 0.0169238 15.3201 0.184389 16.4651 0.507357C17.402 0.770516 18.3158 1.15329 19.1717 1.64373C19.9235 2.07435 20.6059 2.60067 21.2189 3.22268C21.7626 3.77292 22.2599 4.37101 22.7226 5.00499C23.6942 6.45236 24.3766 8.09113 24.7004 9.82559L16.9856 10.4476C16.7427 9.93324 16.4305 9.46673 16.0603 9.03611C15.6671 8.64137 15.2275 8.30644 14.7533 8.03132C14.1634 7.70835 13.4926 7.54089 12.8217 7.55285C12.1624 7.54089 11.5147 7.6605 10.9017 7.92366C10.3002 8.18682 9.74506 8.55764 9.2824 9.03611C8.80818 9.51458 8.42649 10.0887 8.14889 10.7227C7.58214 12.0505 7.54744 13.5457 8.05636 14.8974C8.29926 15.5433 8.65782 16.1294 9.12047 16.6318C9.56 17.1342 10.0921 17.529 10.6935 17.828C11.2603 18.139 11.908 18.3065 12.5673 18.3185Z" fill="white"/>
<path d="M36.7989 18.0197L34.636 18.0077L34.6128 25.747L26.7361 25.7231L26.8055 0.0650635L38.3835 0.112911C39.7136 0.100949 41.0438 0.340184 42.2929 0.818656C43.4033 1.24928 44.4096 1.89522 45.2771 2.72058C46.0983 3.51006 46.7576 4.47896 47.1855 5.55552C47.6366 6.67993 47.8564 7.88807 47.8448 9.09621C47.868 10.1847 47.6598 11.2613 47.2202 12.2541C46.8732 13.0316 46.4106 13.7493 45.8554 14.3833C45.3002 15.0412 44.6294 15.5915 43.8891 16.0101L49.3716 25.7949L40.7083 25.7709L36.7989 18.0197ZM37.5854 10.9024C38.1175 10.9264 38.638 10.7469 39.0428 10.3761C39.7368 9.70626 39.783 8.58185 39.1469 7.86415C39.1122 7.82826 39.089 7.80434 39.0543 7.76845C38.6495 7.39764 38.129 7.20625 37.597 7.23017H34.6822L34.6707 10.8905L37.5854 10.9024Z" fill="white"/>
<path d="M96.2966 0.220332L104.543 0.244256L104.486 25.8305L96.6204 25.8185L96.6551 13.8328L91.323 25.7946H88.9635L83.6892 13.797L83.666 25.7827L75.8124 25.7587L75.8703 0.172485L84.1171 0.196409L90.1779 13.6175L96.2966 0.220332Z" fill="white"/>
<path d="M62.3607 0.184547C55.5134 0.0170819 49.7995 5.65108 49.6607 12.7444C49.522 19.8736 54.8772 25.6153 61.6436 25.8545C68.5603 26.0938 74.3204 20.5315 74.4823 13.3186C74.6442 6.20132 69.2658 0.399859 62.3607 0.184547ZM68.4562 22.6009L62.245 18.7732L55.8835 22.2899L57.4565 15.0052L52.2632 9.82575L59.4459 9.12L62.592 2.40944L65.4489 9.26354L72.597 10.2923L67.1839 15.2444L68.4562 22.6009Z" fill="white"/>
</svg>
