<svg width="30" height="27" viewBox="0 0 30 27" fill="none" xmlns="http://www.w3.org/2000/svg">
<path d="M14.923 14.257L20.4036 19.7362L18.5759 21.5639L16.2147 19.2027V26.4167H13.6314V19.2002L11.2702 21.5639L9.44248 19.7362L14.923 14.257ZM14.923 0.583374C17.1408 0.58348 19.2812 1.39856 20.9373 2.87365C22.5934 4.34874 23.6496 6.38097 23.9053 8.58396C25.5125 9.02224 26.9145 10.0114 27.8664 11.3785C28.8183 12.7456 29.2594 14.4038 29.1128 16.0632C28.9661 17.7226 28.241 19.2777 27.0641 20.4567C25.8872 21.6357 24.3334 22.3637 22.6743 22.5133V19.9119C23.2687 19.827 23.8402 19.6245 24.3555 19.3164C24.8708 19.0082 25.3196 18.6005 25.6756 18.117C26.0316 17.6335 26.2877 17.0839 26.429 16.5004C26.5703 15.9168 26.594 15.311 26.4986 14.7182C26.4032 14.1254 26.1906 13.5575 25.8734 13.0478C25.5562 12.538 25.1405 12.0965 24.6508 11.7491C24.1611 11.4018 23.6071 11.1554 23.0211 11.0244C22.4352 10.8935 21.829 10.8806 21.238 10.9865C21.4403 10.0447 21.4293 9.06959 21.206 8.13259C20.9826 7.19559 20.5525 6.32042 19.9471 5.57118C19.3417 4.82195 18.5764 4.21762 17.7072 3.80246C16.838 3.3873 15.8869 3.17183 14.9237 3.17183C13.9604 3.17183 13.0094 3.3873 12.1402 3.80246C11.271 4.21762 10.5056 4.82195 9.90025 5.57118C9.29486 6.32042 8.86473 7.19559 8.64136 8.13259C8.418 9.06959 8.40706 10.0447 8.60935 10.9865C7.43091 10.7652 6.21282 11.0211 5.22305 11.6979C4.23328 12.3747 3.5529 13.4169 3.3316 14.5954C3.1103 15.7738 3.3662 16.9919 4.043 17.9817C4.71981 18.9714 5.76208 19.6518 6.94052 19.8731L7.17302 19.9119V22.5133C5.51381 22.3639 3.95988 21.6361 2.78282 20.4572C1.60576 19.2783 0.880442 17.7232 0.733641 16.0638C0.586839 14.4043 1.02789 12.7461 1.9797 11.3788C2.93152 10.0116 4.33356 9.02233 5.94077 8.58396C6.19614 6.38086 7.25234 4.34847 8.90848 2.87332C10.5646 1.39818 12.7052 0.583197 14.923 0.583374V0.583374Z" fill="#64748B"/>
</svg>
