<svg width="27" height="27" viewBox="0 0 27 27" fill="none" xmlns="http://www.w3.org/2000/svg">
<path d="M20.7067 18.8803L26.2389 24.4112L24.4112 26.2389L18.8803 20.7067C16.8223 22.3565 14.2626 23.2538 11.625 23.25C5.208 23.25 0 18.042 0 11.625C0 5.208 5.208 0 11.625 0C18.042 0 23.25 5.208 23.25 11.625C23.2538 14.2626 22.3565 16.8223 20.7067 18.8803ZM18.1156 17.9219C19.7549 16.2361 20.6704 13.9764 20.6667 11.625C20.6667 6.62883 16.6199 2.58333 11.625 2.58333C6.62883 2.58333 2.58333 6.62883 2.58333 11.625C2.58333 16.6199 6.62883 20.6667 11.625 20.6667C13.9764 20.6704 16.2361 19.7549 17.9219 18.1156L18.1156 17.9219V17.9219Z" fill="#64748B"/>
</svg>
