<svg width="38" height="38" viewBox="0 0 38 38" fill="none" xmlns="http://www.w3.org/2000/svg">
<rect width="37.193" height="37.193" rx="10" fill="#222939"/>
<g clip-path="url(#clip0_1_1279)">
<path d="M10 17H9V11.003C9 10.449 9.455 10 9.992 10H28.008C28.1393 9.99973 28.2693 10.0256 28.3905 10.076C28.5117 10.1265 28.6217 10.2005 28.714 10.2938C28.8063 10.3872 28.8791 10.4979 28.9282 10.6197C28.9773 10.7414 29.0017 10.8717 29 11.003V17H28V27.001C28.0004 27.1318 27.975 27.2614 27.9253 27.3824C27.8756 27.5034 27.8026 27.6134 27.7104 27.7062C27.6182 27.7989 27.5086 27.8726 27.3879 27.923C27.2672 27.9735 27.1378 27.9996 27.007 28H10.993C10.8622 27.9996 10.7328 27.9735 10.6121 27.923C10.4914 27.8726 10.3818 27.7989 10.2896 27.7062C10.1974 27.6134 10.1244 27.5034 10.0747 27.3824C10.025 27.2614 9.99961 27.1318 10 27.001V17ZM26 17H12V26H26V17ZM11 12V15H27V12H11ZM16 19H22V21H16V19Z" fill="white"/>
</g>
<defs>
<clipPath id="clip0_1_1279">
<rect width="24" height="24" fill="white" transform="translate(7 7)"/>
</clipPath>
</defs>
</svg>
