<svg width="38" height="38" viewBox="0 0 38 38" fill="none" xmlns="http://www.w3.org/2000/svg">
<rect width="37.193" height="37.193" rx="10" fill="#222939"/>
<g clip-path="url(#clip0_1_1253)">
<path d="M15.965 25C15.8461 25.8343 15.4302 26.5977 14.7937 27.1499C14.1571 27.7022 13.3427 28.0063 12.5 28.0063C11.6573 28.0063 10.8429 27.7022 10.2063 27.1499C9.56979 26.5977 9.15388 25.8343 9.035 25H8V13C8 12.7348 8.10536 12.4804 8.29289 12.2929C8.48043 12.1054 8.73478 12 9 12H23C23.2652 12 23.5196 12.1054 23.7071 12.2929C23.8946 12.4804 24 12.7348 24 13V15H27L30 19.056V25H27.965C27.8461 25.8343 27.4302 26.5977 26.7937 27.1499C26.1571 27.7022 25.3427 28.0063 24.5 28.0063C23.6573 28.0063 22.8429 27.7022 22.2063 27.1499C21.5698 26.5977 21.1539 25.8343 21.035 25H15.965ZM22 14H10V22.05C10.3946 21.6472 10.8806 21.3457 11.4168 21.1711C11.9529 20.9966 12.5233 20.9541 13.0794 21.0474C13.6355 21.1407 14.1608 21.3669 14.6106 21.7069C15.0604 22.0469 15.4215 22.4905 15.663 23H21.337C21.505 22.647 21.73 22.326 22 22.05V14ZM24 20H28V19.715L25.992 17H24V20ZM24.5 26C24.898 26 25.2796 25.8419 25.561 25.5605C25.8424 25.2791 26.0005 24.8975 26.0005 24.4995C26.0005 24.1015 25.8424 23.7199 25.561 23.4385C25.2796 23.1571 24.898 22.999 24.5 22.999C24.102 22.999 23.7204 23.1571 23.439 23.4385C23.1576 23.7199 22.9995 24.1015 22.9995 24.4995C22.9995 24.8975 23.1576 25.2791 23.439 25.5605C23.7204 25.8419 24.102 26 24.5 26ZM14 24.5C14 24.303 13.9612 24.108 13.8858 23.926C13.8104 23.744 13.6999 23.5786 13.5607 23.4393C13.4214 23.3001 13.256 23.1896 13.074 23.1142C12.892 23.0388 12.697 23 12.5 23C12.303 23 12.108 23.0388 11.926 23.1142C11.744 23.1896 11.5786 23.3001 11.4393 23.4393C11.3001 23.5786 11.1896 23.744 11.1142 23.926C11.0388 24.108 11 24.303 11 24.5C11 24.8978 11.158 25.2794 11.4393 25.5607C11.7206 25.842 12.1022 26 12.5 26C12.8978 26 13.2794 25.842 13.5607 25.5607C13.842 25.2794 14 24.8978 14 24.5Z" fill="white"/>
</g>
<defs>
<clipPath id="clip0_1_1253">
<rect width="24" height="24" fill="white" transform="translate(7 7)"/>
</clipPath>
</defs>
</svg>
